<svg width="131" height="59" viewBox="0 0 131 59" fill="none" xmlns="http://www.w3.org/2000/svg">
<path d="M55.9247 7.95789C57.0953 7.77872 57.5757 7.68705 57.7476 7.63872C58.1778 7.51768 60.5472 7.06977 61.8101 6.8706C62.383 6.78039 63.0862 6.66143 63.3726 6.60622C63.8355 6.51726 65.5503 6.27164 67.7778 5.9756C68.1955 5.91997 68.7699 5.87456 69.0539 5.87456C69.2262 5.87456 69.3982 5.87456 69.5705 5.87456C68.3999 6.04081 67.1928 6.20706 66.133 6.35081C57.1018 7.57789 47.9112 9.87998 38.4478 13.2858C31.9399 15.6277 25.1076 18.8362 19.5178 22.1756C13.6047 25.7079 10.6943 27.9052 5.79449 32.536C5.35179 32.9543 4.90908 33.3727 4.46637 33.7912C7.18324 30.9116 8.33866 29.8352 10.758 27.9291C11.2107 27.5727 11.738 27.1521 11.9299 26.9943C12.0464 26.8987 12.1626 26.8035 12.2789 26.7079C12.3135 26.6733 12.3485 26.6383 12.383 26.6037C13.4016 25.881 14.4093 25.2014 15.2797 24.6271C15.8072 24.2789 16.3347 23.931 16.8622 23.5829C16.8968 23.5483 16.9318 23.5133 16.9664 23.4787C17.7162 23.0346 18.1378 22.7887 18.3872 22.6454C18.6368 22.5021 19.298 22.1062 19.8568 21.7656C20.4155 21.425 21.3649 20.89 21.9664 20.5766C22.568 20.2635 23.2243 19.9046 23.4247 19.7794C23.8539 19.511 28.536 17.2152 30.0393 16.536C31.467 15.891 31.3543 15.9406 32.7216 15.356C33.1295 15.1816 33.5376 15.0073 33.9455 14.8329C33.9803 14.7983 34.0149 14.7633 34.0497 14.7287C34.8168 14.4712 35.2268 14.3185 35.456 14.2231C35.6851 14.1277 36.0951 13.9683 36.3674 13.8685C36.5324 13.8079 36.6972 13.7477 36.8622 13.6871C36.897 13.6525 36.9316 13.6175 36.9664 13.5829C37.2095 13.5133 37.4524 13.4441 37.6955 13.3746C37.7303 13.34 37.7649 13.305 37.7997 13.2704C44.3332 11.1479 46.9332 10.3302 48.8414 9.79685C50.6414 9.29393 54.4174 8.33872 55.2737 8.16977C55.456 8.13393 55.6382 8.0981 55.8205 8.06206C55.8553 8.02747 55.8899 7.99247 55.9247 7.95789Z" fill="#1A355B"/>
<path d="M43.4247 58.2704C43.7372 57.9927 44.0497 57.7148 44.3622 57.4371C44.1049 57.7148 43.848 57.9927 43.5907 58.2704C46.2366 58.2704 48.8826 58.2704 51.5286 58.2704C54.1745 58.2704 56.8203 58.2704 59.4663 58.2704C54.1191 58.3052 48.772 58.3398 43.4247 58.3746C43.4247 58.3398 43.4247 58.3052 43.4247 58.2704Z" fill="#181521"/>
<path d="M11.1331 57.9579C11.2372 57.7496 11.3414 57.5412 11.4456 57.3329C11.4066 57.6454 11.3674 57.9579 11.3285 58.2704C13.1874 58.2704 15.0462 58.2704 16.9049 58.2704C18.7637 58.2704 20.6226 58.2704 22.4812 58.2704C22.517 58.1662 22.5526 58.0621 22.5885 57.9579C22.6241 57.8537 22.6597 57.7496 22.6956 57.6454C22.6435 57.8918 22.5914 58.1381 22.5393 58.3845C20.6383 58.3823 18.7372 58.38 16.8362 58.3777C11.2203 58.3712 11.1331 58.3679 11.1331 58.1646C11.1331 58.0958 11.1331 58.0268 11.1331 57.9579Z" fill="#181521"/>
<path d="M124.987 38.1662C125.083 38.2348 125.036 38.6331 124.944 39.0958C124.889 39.3762 124.834 39.6566 124.779 39.9371C124.847 39.3814 124.914 38.826 124.982 38.2704C124.291 38.2704 123.6 38.2704 122.909 38.2704C120.924 38.2704 120.833 38.2793 120.776 38.4787C120.756 38.5481 120.736 38.6177 120.716 38.6871C120.734 38.496 120.751 38.3052 120.768 38.1141C121.246 38.1229 121.723 38.1314 122.201 38.1402C122.678 38.1489 123.156 38.1575 123.633 38.1662C123.702 38.1662 123.772 38.1662 123.841 38.1662C124.189 38.1662 124.536 38.1662 124.883 38.1662C124.918 38.1662 124.952 38.1662 124.987 38.1662Z" fill="#194914"/>
<path d="M109.987 47.5412C109.987 48.0252 109.793 48.3493 109.575 48.2273C109.539 48.2071 109.503 48.1864 109.466 48.1662C109.779 48.0756 109.897 47.9348 109.929 47.7952C109.948 47.7104 109.968 47.626 109.987 47.5412Z" fill="#194914"/>
<path d="M28.8414 26.8121C29.9312 26.1108 30.446 25.7829 30.6881 25.6306C30.8347 25.5385 30.9818 25.4462 31.1285 25.3541C31.3464 25.6914 31.5639 26.0287 31.7818 26.3662C32.6545 27.7181 32.6706 27.7429 33.4916 28.9981C33.8845 29.5989 34.2293 30.1379 34.2581 30.196C34.2868 30.2541 34.4012 30.4423 34.5122 30.6141C34.8216 31.0929 36.1891 33.2002 36.9456 34.3641C37.3181 34.9371 37.8147 35.7048 38.0497 36.07C38.2845 36.4354 38.7581 37.1633 39.1018 37.6875C39.4456 38.2116 40.0314 39.1208 40.4039 39.7075C40.7764 40.2943 41.5028 41.4223 42.0185 42.2144C42.5341 43.0062 43.0381 43.8023 43.1383 43.9831C43.1991 44.0927 43.2597 44.2023 43.3206 44.3121C41.1762 41.1106 37.2451 35.1258 36.5497 34.0035C36.2053 33.4481 35.2612 31.9873 33.7062 29.6041C33.007 28.5329 32.1347 27.1827 31.7676 26.6037C31.5451 26.2527 31.3226 25.9018 31.1001 25.551C30.2203 26.1256 29.3401 26.7004 28.4604 27.2754C27.5804 27.8502 26.7003 28.4248 25.8206 28.9996C26.3435 28.5858 26.5778 28.3985 26.6789 28.316C26.7399 28.266 26.8012 28.2162 26.8622 28.1662C26.897 28.1316 26.9316 28.0966 26.9664 28.0621C27.3483 27.8191 27.7303 27.5758 28.1122 27.3329C28.147 27.2983 28.1816 27.2633 28.2164 27.2287C28.3899 27.1246 28.5637 27.0204 28.7372 26.9162C28.772 26.8816 28.8066 26.8466 28.8414 26.8121Z" fill="#181521"/>
<path d="M65.1955 23.5829C65.4047 23.7366 65.6943 24.1468 65.9743 24.5935C66.4172 25.3006 67.0122 26.1621 67.5426 26.8641C67.6293 26.9787 67.7472 27.1662 67.8047 27.2808C67.8624 27.3954 68.1895 27.8993 68.5318 28.4006C68.7393 28.7046 68.9466 29.0081 69.1539 29.3121C68.4241 28.3837 67.9907 27.8098 67.7195 27.4381C66.9995 26.45 65.2997 23.8675 65.2997 23.7614C65.2997 23.71 61.5941 23.6854 56.7762 23.7048C53.9347 23.7162 51.0937 23.7277 48.2524 23.7391C48.1943 23.8868 48.1362 24.0341 48.0782 24.1818C48.0201 24.3296 47.962 24.4768 47.9039 24.6246C47.9714 24.2775 48.0391 23.93 48.1068 23.5829C50.9376 23.5829 53.7682 23.5829 56.5991 23.5829C59.4297 23.5829 62.2607 23.5829 65.0914 23.5829C65.1262 23.5829 65.1607 23.5829 65.1955 23.5829Z" fill="#181521"/>
<path d="M83.5289 48.5829C83.9681 49.061 85.1045 50.5414 85.8485 51.6037C85.9487 51.7471 86.1937 52.0752 86.3929 52.3329C86.592 52.5906 86.9672 53.1062 87.2268 53.4787C87.4864 53.8512 87.8618 54.3668 88.0612 54.6246C88.2606 54.8823 88.5422 55.2575 88.6872 55.4579C88.832 55.6583 89.0889 56.01 89.2581 56.2391C89.4272 56.4683 89.7895 56.9773 90.0631 57.3702C90.3364 57.7631 90.6068 58.1498 90.6637 58.2296C90.752 58.3529 89.7368 58.3746 83.826 58.3746C77.7535 58.3746 76.8766 58.355 76.8212 58.2183C76.8001 58.1662 76.7791 58.1141 76.7581 58.0621C76.9924 58.2356 79.3747 58.2625 83.7762 58.2452C86.021 58.2362 88.2658 58.2273 90.5108 58.2183C90.3972 58.0581 90.2843 57.8981 90.1708 57.7379C89.9841 57.4739 89.3595 56.63 88.7833 55.8629C86.9858 53.4708 86.2395 52.4468 84.8626 50.4839C84.4181 49.8502 83.9735 49.2166 83.5289 48.5829Z" fill="#181521"/>
<path d="M39.7789 56.9162C38.498 55.121 38.6497 55.3431 37.6462 53.7912C37.5164 53.5908 36.5253 52.0914 35.4437 50.4596C34.362 48.8277 33.4299 47.4181 33.3726 47.3273C33.3153 47.2364 33.1278 46.9387 32.956 46.666C32.7841 46.3933 32.1172 45.3656 31.4741 44.3818C30.831 43.3983 30.1864 42.3941 30.0418 42.1506C29.9541 42.0031 29.8664 41.8554 29.7789 41.7079C31.9182 44.8262 32.8897 46.2677 33.3178 46.9229C33.9295 47.8587 36.6549 52.0104 38.3737 54.6246C38.5055 54.825 38.8755 55.4227 39.1962 55.9527C39.3903 56.2739 39.5845 56.595 39.7789 56.9162Z" fill="#151721"/>
<path d="M40.1956 57.5412C40.0914 57.4023 39.9872 57.2635 39.8831 57.1246C40.2416 57.4806 40.2783 57.466 40.8478 56.9943C41.047 56.8293 41.2464 56.6646 41.4456 56.4996C41.2024 56.7427 40.9595 56.9856 40.7164 57.2287C40.647 57.2981 40.5774 57.3677 40.5081 57.4371C40.4387 57.4718 40.3691 57.5064 40.2997 57.5412C40.2649 57.5412 40.2303 57.5412 40.1956 57.5412Z" fill="#151721"/>
<path d="M73.6331 31.1871C75.0039 29.7743 75.6835 29.1181 76.0278 28.8173C76.2364 28.635 76.4451 28.4527 76.6539 28.2704C76.7374 28.3271 76.0578 28.9833 75.1974 29.7652C74.6758 30.2391 74.1545 30.7131 73.6331 31.1871Z" fill="#181521"/>
<path d="M48.8414 50.3537C48.2858 50.8052 47.7304 51.2564 47.1747 51.7079C48.9912 50.086 49.6943 49.5 49.9091 49.3593C50.0393 49.2741 50.1695 49.1889 50.2997 49.1037C49.6135 49.6512 49.3089 49.9089 49.18 50.03C49.1018 50.1031 49.0237 50.1764 48.9456 50.2495C48.9108 50.2843 48.8762 50.3189 48.8414 50.3537Z" fill="#151721"/>
<path d="M45.5081 53.0621C45.2256 53.4066 44.827 53.7583 44.4404 54.0656C44.206 54.2521 43.9716 54.4383 43.7372 54.6246C44.3275 54.1037 44.9179 53.5829 45.5081 53.0621Z" fill="#151721"/>
<path d="M82.3309 22.9579C82.3022 22.9579 82.2788 22.9814 82.2788 23.01C82.2788 23.0385 82.3022 23.0621 82.3309 23.0621C82.3597 23.0621 82.383 23.0385 82.383 23.01C82.383 22.9814 82.3597 22.9579 82.3309 22.9579Z" fill="#0066C0"/>
<path d="M11.4455 56.9162V57.3329L11.3284 58.2704H16.9049H22.4811L22.5884 57.9579C22.6241 57.8537 22.6597 57.7496 22.6955 57.6454V57.4371L23.1122 55.5621V55.4579L23.2163 55.1454L23.3205 54.9371V54.5204V54.3121L23.4247 53.9996V53.8954L23.5288 53.4787V53.2704L23.633 53.0621L23.7445 52.6193C23.8059 52.3758 23.9449 51.7079 24.0536 51.135C24.3555 49.5406 25.1684 45.5191 25.4016 44.4683C25.5157 43.9527 25.7084 43.0152 25.8295 42.385C25.9505 41.7548 26.1855 40.6362 26.352 39.8989C26.5182 39.1619 26.6711 38.33 26.692 38.05C26.7128 37.7702 26.7811 37.5412 26.8443 37.5412C26.9682 37.5412 28.6928 40.0243 29.0507 40.7183C29.1099 40.8329 29.298 41.1025 29.7788 41.7079C31.9182 44.8262 32.8897 46.2677 33.3178 46.9229C33.9295 47.8587 36.6549 52.0104 38.3736 54.6246C38.5055 54.825 38.8755 55.4227 39.1961 55.9527L39.7788 56.9162L39.883 57.1246C40.2416 57.4806 40.2782 57.466 40.8478 56.9943L41.4455 56.4996L41.6538 56.3954L41.8622 56.1871L42.1747 55.9787L42.5913 55.5621L43.008 55.2496L43.2163 55.0412L43.7372 54.6246L45.508 53.0621L45.7163 52.9579L46.6538 52.1246L47.1747 51.7079C48.9911 50.086 49.6943 49.5 49.9091 49.3593L50.2997 49.1037L50.508 48.8954L50.9247 48.4787L51.133 48.3746L51.9663 47.6454L52.1747 47.5412L52.4872 47.2287L53.0861 46.7339C53.4155 46.4616 53.7672 46.1923 53.8676 46.135C53.9945 46.0629 54.1168 45.7114 54.267 44.9891C55.1184 40.8935 57.4092 31.1604 57.6638 29.7287C56.2744 27.7602 55.4038 26.6037 55.4038 26.6037C55.4038 26.5691 55.0914 26.2216 55.0914 26.1871C55.0914 26.1871 53.445 24.1047 53.1192 23.7195L48.2524 23.7391C48.1943 23.8868 48.1361 24.0341 48.0782 24.1818L47.9038 24.6246L47.793 25.1714C47.7322 25.4723 47.5688 26.2808 47.4301 26.9683C47.2916 27.6558 47.0351 28.8979 46.8601 29.7287C46.6851 30.5596 46.4986 31.45 46.4457 31.7079L45.6653 35.51C45.2888 37.3433 44.8182 39.6987 44.258 42.6454L44.1538 43.0621V43.2704L44.0497 43.5829V43.8954L43.9455 43.9996C43.9291 44.1037 43.9124 44.2079 43.8961 44.3121C43.8609 44.5333 43.7882 44.6246 43.6468 44.6246C43.5368 44.6246 43.4186 44.5543 43.3205 44.3121C41.1761 41.1106 37.2451 35.1258 36.5497 34.0035C36.2053 33.4481 35.2611 31.9873 33.7061 29.6041C33.007 28.5329 32.1347 27.1827 31.7676 26.6037L31.1001 25.551L30.8213 25.7331C30.0344 26.247 29.2472 26.7611 28.4603 27.2754C27.5803 27.8502 26.7003 28.4248 25.8205 28.9996L25.1695 29.4148C24.8113 29.6431 24.3309 29.9675 24.1018 30.1354C23.3466 30.6887 22.2626 31.4454 22.0568 31.5631C21.9455 31.6268 21.7507 31.7704 21.6238 31.8821C21.4972 31.9937 21.2928 32.1527 21.1697 32.2352C20.9638 32.3731 19.757 33.2473 18.8538 33.9129C18.5138 34.1633 17.7684 34.6977 16.758 35.4154C16.5576 35.5577 16.193 35.8716 15.9484 36.1129L15.5034 36.5516C15.3507 37.3329 15.1976 38.1141 15.0447 38.8954C14.7924 40.1846 14.3461 42.4812 14.053 43.9996C13.7599 45.5179 13.4803 46.9241 13.4316 47.1246C13.3826 47.325 13.127 48.6258 12.383 52.5412C12.3484 52.6802 12.3134 52.8189 12.2788 52.9579V53.1662C12.2443 53.2704 12.2093 53.3746 12.1747 53.4787V53.5829C12.1401 53.7564 12.1051 53.9302 12.0705 54.1037V54.3121L11.9663 54.5204V54.7287C11.9318 54.8329 11.8968 54.9371 11.8622 55.0412V55.2496L11.758 55.4579V55.5621C11.7234 55.6662 11.6884 55.7704 11.6538 55.8746V56.1871C11.6193 56.2218 11.5843 56.2564 11.5497 56.2912V56.6037C11.5151 56.7079 11.4801 56.8121 11.4455 56.9162Z" fill="#0B2340"/>
<path fill-rule="evenodd" clip-rule="evenodd" d="M65.2997 23.7614C65.2997 23.71 61.5941 23.6854 56.7761 23.7048L53.1192 23.7195C53.445 24.1047 55.0914 26.1871 55.0914 26.1871C55.0914 26.2216 55.4038 26.5691 55.4038 26.6037C55.4038 26.6037 56.2744 27.7602 57.6638 29.7287C58.6313 31.0993 59.8503 32.8636 61.2022 34.9052C62.2207 36.4435 63.2395 37.9818 64.258 39.5204L64.0497 39.9371L63.9455 40.0412L63.2861 40.6402C62.9232 40.9696 62.1916 41.6141 61.6599 42.0725C61.1282 42.5308 60.2624 43.3043 59.7357 43.7912C59.2091 44.2781 58.1953 45.1923 57.483 45.8225C56.7707 46.4527 55.783 47.3433 55.288 47.8016C54.4861 48.5446 53.7336 49.2168 51.4995 51.1871C51.142 51.5023 50.462 52.0881 49.988 52.4891C49.5141 52.8902 48.8605 53.4527 48.5355 53.7391C48.2105 54.0256 47.4595 54.6818 46.8661 55.1975C46.273 55.7131 45.467 56.4279 44.3622 57.4371C44.1049 57.7148 43.848 57.9927 43.5907 58.2704H51.5286H59.4663L59.5705 58.1662L61.0288 56.8121L61.3413 56.6037L62.1747 55.7704L62.7334 55.2756C63.0407 55.0033 63.8897 54.2418 64.6205 53.5829C65.8774 52.4493 66.4495 51.9225 69.258 49.3121L69.6747 48.8954L69.9872 48.6871C70.2849 48.5679 71.1751 49.6414 72.7263 51.9891C73.1728 52.6652 73.8876 53.7456 74.3149 54.3902L75.0913 55.5621L75.2445 55.8485C75.3286 56.006 75.517 56.2991 75.6628 56.4996C75.8086 56.7 76.0209 56.9931 76.3413 57.4371L76.5497 57.6454V57.7496L76.758 57.9579V58.0621C76.9924 58.2356 79.3747 58.2625 83.7761 58.2452L90.5107 58.2183C90.3972 58.0581 90.2843 57.8981 90.1707 57.7379C89.984 57.4739 89.3595 56.63 88.7832 55.8629C86.9857 53.4708 86.2395 52.4468 84.8626 50.4839L83.5288 48.5829C83.4338 48.4179 83.3393 48.2531 83.2445 48.0881C83.088 47.8158 82.6074 47.1314 82.1768 46.5668C81.7459 46.0025 81.3253 45.44 81.242 45.3168C81.1588 45.1939 80.7595 44.6479 80.3545 44.1037C79.2895 42.6721 78.8132 41.9481 78.8559 41.826C78.8895 41.73 79.6797 40.8616 82.7476 37.5481C83.2632 36.9912 84.1305 36.0273 84.6747 35.4062C85.2188 34.7852 86.0628 33.8464 86.5497 33.3204C87.0366 32.7946 87.9272 31.8118 88.5288 31.1371C89.1305 30.4621 89.9272 29.5721 90.2997 29.1589C90.6722 28.7462 91.5393 27.7812 92.2268 27.0148C92.9143 26.2481 93.8518 25.2177 94.3101 24.7248C95.0753 23.9018 95.7347 23.17 98.3726 20.2135C98.8882 19.6358 99.6851 18.7554 100.143 18.2573C100.602 17.7591 101.211 17.0779 101.498 16.7433C101.671 16.5406 101.845 16.3379 102.018 16.135L101.061 16.105C98.5195 16.0258 96.4986 15.2104 94.8493 13.5981C94.4013 13.16 93.9649 12.6698 93.8799 12.5087C93.8417 12.4362 93.8034 12.3638 93.7651 12.2913L93.7251 12.2158C93.1644 12.7514 92.6037 13.2868 92.043 13.8222L91.9513 13.9098C90.9757 14.8414 89.6176 16.1216 88.9332 16.7548C88.2491 17.3879 87.1047 18.4566 85.0913 20.3537C84.7441 20.7008 84.397 21.0483 84.0497 21.3954L83.3205 22.0204C83.008 22.2983 82.6955 22.5758 82.383 22.8537C82.3136 22.9233 82.2441 22.9925 82.1747 23.0621C80.9234 24.3775 79.7516 25.5025 78.7632 26.4108L76.9663 28.0621C76.9316 28.0966 76.897 28.1316 76.8622 28.1662H76.758C76.7232 28.2008 76.6886 28.2358 76.6538 28.2704C76.7374 28.3271 76.0578 28.9833 75.1974 29.7652C74.6757 30.2391 74.1545 30.7131 73.633 31.1871L73.4247 31.2912C73.2511 31.465 73.0774 31.6383 72.9038 31.8121L72.4872 32.1246C72.4178 32.1941 72.3482 32.2633 72.2788 32.3329L71.5497 32.8537L69.1538 29.4162V29.3121C68.4241 28.3837 67.9907 27.8098 67.7195 27.4381C66.9995 26.45 65.2997 23.8675 65.2997 23.7614ZM82.2788 23.01C82.2788 22.9814 82.3022 22.9579 82.3309 22.9579C82.3597 22.9579 82.383 22.9814 82.383 23.01C82.383 23.0385 82.3597 23.0621 82.3309 23.0621C82.3022 23.0621 82.2788 23.0385 82.2788 23.01Z" fill="#0066C0"/>
<path d="M5.19554 50.8746C3.63741 50.1021 2.68449 49.376 1.92741 48.3843C1.10491 47.3066 0.669079 46.5989 0.541996 46.135C0.526371 46.0777 0.391792 45.6323 0.242625 45.1454C-0.00633352 44.3314 -0.0246689 44.1464 0.0178311 42.8537C0.0499144 41.8802 0.128249 41.2231 0.272208 40.7183C0.386791 40.3173 0.498458 39.9229 0.520125 39.8419C0.542 39.761 0.777833 39.2423 1.04367 38.6891C1.63679 37.4558 2.9995 35.4052 3.84075 34.4795C4.04929 34.25 4.25783 34.0206 4.46637 33.7912C4.90908 33.3727 5.35179 32.9543 5.7945 32.536C10.6943 27.9052 13.6047 25.7079 19.5178 22.1756C25.1076 18.8362 31.9399 15.6277 38.4478 13.2858C47.9112 9.87997 57.1018 7.57789 66.133 6.35081C67.1928 6.20706 68.3999 6.0408 69.5705 5.87455C69.6399 5.87455 69.7095 5.87455 69.7789 5.87455C70.4993 5.82226 71.2199 5.76997 71.9403 5.71768C78.5672 5.23664 85.6235 5.25497 92.2789 5.77039C92.2789 5.97872 92.2789 6.18705 92.2789 6.39539C92.2789 6.67226 92.2789 6.94935 92.2789 7.22622C92.2789 7.5031 92.2789 7.77997 92.2789 8.05664C91.2024 8.0931 90.1262 8.12976 89.0497 8.16622C88.9455 8.16622 88.8414 8.16622 88.7372 8.16622C87.9647 8.18622 87.192 8.20622 86.4195 8.22622C85.1447 8.25893 83.4105 8.35289 81.0289 8.58289C80.9941 8.58289 80.9595 8.58289 80.9247 8.58289C80.7164 8.61747 80.508 8.65247 80.2997 8.68705C75.9568 9.07872 73.7183 9.3481 70.2997 9.89143C69.3543 10.0416 68.4639 10.1808 68.3205 10.2004C66.7618 10.4148 63.1322 11.1766 59.9351 11.9602C56.5664 12.786 54.2995 13.4021 53.2164 13.7866C52.9149 13.8937 51.2643 14.3752 50.6903 14.5235C50.5601 14.5573 50.4299 14.591 50.2997 14.6246C50.2649 14.6591 50.2303 14.6941 50.1955 14.7287C50.1607 14.7287 50.1262 14.7287 50.0914 14.7287C49.7355 14.8364 49.3795 14.9439 49.0237 15.0516C48.4366 15.2291 47.8974 15.4166 47.6955 15.5621C47.6607 15.5621 47.6262 15.5621 47.5914 15.5621C47.522 15.5966 47.4524 15.6316 47.383 15.6662C47.3482 15.6662 47.3137 15.6662 47.2789 15.6662C47.017 15.7523 46.7551 15.8381 46.4932 15.9239C46.061 16.0658 45.6391 16.2298 45.4039 16.3954C45.3691 16.3954 45.3345 16.3954 45.2997 16.3954C45.2303 16.43 45.1607 16.465 45.0914 16.4996C45.0566 16.4996 45.022 16.4996 44.9872 16.4996C44.9524 16.5341 44.9178 16.5691 44.883 16.6037C44.8482 16.6037 44.8137 16.6037 44.7789 16.6037C44.7095 16.6383 44.6399 16.6733 44.5705 16.7079C44.5357 16.7079 44.5012 16.7079 44.4664 16.7079C44.397 16.7425 44.3274 16.7775 44.258 16.8121C44.2232 16.8121 44.1887 16.8121 44.1539 16.8121C44.1191 16.8466 44.0845 16.8816 44.0497 16.9162C44.0149 16.9162 43.9803 16.9162 43.9455 16.9162C43.8762 16.9508 43.8066 16.9858 43.7372 17.0204C43.7024 17.0204 43.6678 17.0204 43.633 17.0204C43.5982 17.055 43.5637 17.09 43.5289 17.1246C43.4941 17.1246 43.4595 17.1246 43.4247 17.1246C43.3553 17.1591 43.2857 17.1941 43.2164 17.2287C43.1816 17.2287 43.147 17.2287 43.1122 17.2287C43.0774 17.2633 43.0428 17.2983 43.008 17.3329C42.9732 17.3329 42.9387 17.3329 42.9039 17.3329C42.8345 17.3675 42.7649 17.4025 42.6955 17.4371C42.6607 17.4371 42.6262 17.4371 42.5914 17.4371C42.383 17.5412 42.1747 17.6454 41.9664 17.7496C41.9316 17.7496 41.897 17.7496 41.8622 17.7496C41.5497 17.8883 41.2372 18.0275 40.9247 18.1662C40.8899 18.1662 40.8553 18.1662 40.8205 18.1662C40.3691 18.3746 39.9178 18.5829 39.4664 18.7912C39.4316 18.7912 39.397 18.7912 39.3622 18.7912C39.3274 18.8258 39.2928 18.8608 39.258 18.8954C39.2232 18.8954 39.1887 18.8954 39.1539 18.8954C38.9889 18.9521 38.8241 19.0085 38.6591 19.0652C38.3868 19.1587 38.1291 19.276 38.008 19.4162C37.9732 19.4162 37.9387 19.4162 37.9039 19.4162C37.0357 19.8329 36.1678 20.2496 35.2997 20.6662C35.2649 20.6662 35.2303 20.6662 35.1955 20.6662C34.9524 20.805 34.7095 20.9441 34.4664 21.0829C34.4316 21.0829 34.397 21.0829 34.3622 21.0829C34.258 21.1525 34.1539 21.2216 34.0497 21.2912C34.0149 21.2912 33.9803 21.2912 33.9455 21.2912C33.9107 21.3258 33.8762 21.3608 33.8414 21.3954C33.8066 21.3954 33.772 21.3954 33.7372 21.3954C33.7024 21.43 33.6678 21.465 33.633 21.4996C33.5982 21.4996 33.5637 21.4996 33.5289 21.4996C33.4247 21.5691 33.3205 21.6383 33.2164 21.7079C33.1816 21.7079 33.147 21.7079 33.1122 21.7079C33.008 21.7775 32.9039 21.8466 32.7997 21.9162C32.7649 21.9162 32.7303 21.9162 32.6955 21.9162C32.218 22.1612 31.7407 22.4064 31.2632 22.6516C30.4755 23.056 29.6199 23.5181 29.3622 23.6783C29.1045 23.8385 28.2945 24.3108 27.5626 24.7281C26.8305 25.1452 26.2095 25.5268 26.133 25.6662C26.0982 25.6662 26.0637 25.6662 26.0289 25.6662C25.7597 25.8304 25.4907 25.9948 25.2216 26.1591C23.8847 26.9754 20.5074 29.2996 19.1374 30.3462C13.9901 34.2779 9.35866 38.7873 8.21637 40.9787C8.21637 41.0135 8.21637 41.0481 8.21637 41.0829C8.21637 41.1177 8.21637 41.1523 8.21637 41.1871C8.11221 41.326 8.00804 41.4648 7.90387 41.6037C7.83429 41.7079 7.76512 41.8121 7.69554 41.9162C6.86491 43.4798 6.48971 44.3233 6.32637 44.7998C6.22721 45.0885 6.12804 45.3775 6.02887 45.6662C5.97866 45.8137 5.92825 45.9614 5.87783 46.1089C5.50283 47.2083 5.59054 49.1898 6.07304 50.5193C6.30408 51.1556 6.30637 51.1871 5.92471 51.1871C5.89012 51.1871 5.85512 51.1871 5.82054 51.1871C5.78596 51.1523 5.75096 51.1177 5.71637 51.0829C5.61221 51.0481 5.50804 51.0135 5.40387 50.9787C5.33429 50.9439 5.26512 50.9093 5.19554 50.8746Z" fill="#0066C0"/>
<path d="M69.7789 5.87455C71.6149 5.47455 76.1589 5.25226 82.4872 5.25247C86.726 5.25247 90.6857 5.42789 91.7841 5.66414C91.9491 5.69934 92.1139 5.73497 92.2789 5.77039C85.6235 5.25497 78.5672 5.23664 71.9403 5.71768C71.2199 5.76997 70.4993 5.82226 69.7789 5.87455Z" fill="#181521"/>
<path d="M6.02886 45.6662C5.66615 48.0648 5.88011 50.2602 6.56136 51.126C6.84656 51.4887 6.7549 51.5677 6.29386 51.3562C6.17073 51.3 6.04781 51.2433 5.92469 51.1871C6.30636 51.1871 6.30406 51.1556 6.07302 50.5193C5.59052 49.1898 5.50281 47.2083 5.87781 46.1089C5.92823 45.9614 5.97865 45.8137 6.02886 45.6662Z" fill="#181521"/>
<path d="M26.0289 25.6662C25.2618 26.2241 24.4064 26.8091 23.633 27.3264C22.8597 27.8435 21.8987 28.5023 21.4976 28.7902C21.0966 29.0781 20.6043 29.4308 20.4039 29.5739C20.2035 29.7168 19.8285 29.9981 19.5705 30.1989C19.3126 30.3996 18.982 30.6454 18.836 30.7452C18.6897 30.845 18.3849 31.0785 18.1589 31.2646C17.9326 31.4504 17.2087 32.0333 16.5497 32.56C13.693 34.8435 10.9812 37.5183 9.17595 39.8329C8.88553 40.2054 8.55075 40.6154 8.43221 40.7443C8.36012 40.8225 8.28824 40.9006 8.21637 40.9787C9.35866 38.7873 13.9901 34.2779 19.1374 30.3462C20.5074 29.2996 23.8847 26.9754 25.2216 26.1591C25.4907 25.9948 25.7597 25.8304 26.0289 25.6662Z" fill="#022F56"/>
<path d="M64.258 39.5204C64.0147 39.3381 63.8857 39.1808 63.8145 39.0527C63.7432 38.9248 63.5455 38.6145 63.3747 38.3629C63.2041 38.1114 63.0164 37.8279 62.958 37.7327C62.8997 37.6375 62.6993 37.3329 62.5128 37.0556C62.3264 36.7785 62.0807 36.411 61.967 36.2391C60.3003 33.7229 56.5232 28.1675 55.6462 26.9423C55.5653 26.8296 55.4847 26.7164 55.4039 26.6037C56.1039 27.3471 57.9087 29.9314 61.2022 34.9052C62.2207 36.4435 63.2395 37.9818 64.258 39.5204Z" fill="#151721"/>
<path d="M32.6956 21.9162C32.5745 22.0654 31.9866 22.3929 31.3114 22.74C30.6362 23.0868 29.9799 23.4423 29.8531 23.5298C29.6126 23.6956 28.8633 24.1291 27.1487 25.0943C26.8101 25.2852 26.4716 25.4756 26.1331 25.6662C26.2095 25.5268 26.8306 25.1452 27.5626 24.7281C28.2945 24.3108 29.1045 23.8385 29.3622 23.6783C29.6199 23.5181 30.4756 23.056 31.2633 22.6516C31.7408 22.4064 32.2181 22.1612 32.6956 21.9162Z" fill="#022F56"/>
<path d="M75.0914 55.5621C74.9558 55.4877 74.6862 55.1312 74.405 54.7216C74.1237 54.3121 73.7997 53.8454 73.6852 53.6844C73.5706 53.5237 73.0827 52.8137 72.6008 52.1073C72.1191 51.4006 71.636 50.7054 71.5272 50.5621C71.4185 50.4187 71.0891 49.9735 70.7956 49.5725C70.502 49.1714 70.2002 48.8081 70.1245 48.7652C70.0787 48.7391 70.0331 48.7131 69.9872 48.6871C70.285 48.5679 71.1752 49.6414 72.7264 51.9891C73.1729 52.6652 73.8877 53.7456 74.315 54.3902C74.5737 54.7808 74.8327 55.1714 75.0914 55.5621Z" fill="#1A355B"/>
<path d="M92.2789 6.39539C92.2962 7.00289 92.3137 7.6108 92.331 8.2183C91.7841 8.20976 91.2372 8.2008 90.6903 8.19226C90.1435 8.18372 89.5966 8.17476 89.0497 8.16622C90.1262 8.12976 91.2024 8.09309 92.2789 8.05664C92.2789 7.77997 92.2789 7.5031 92.2789 7.22622C92.2789 6.94935 92.2789 6.67226 92.2789 6.39539Z" fill="#1A355B"/>
<path d="M88.7372 8.16622C86.1943 8.31851 84.4599 8.41227 83.2424 8.47268C82.5045 8.50935 81.7668 8.54622 81.0289 8.58289C83.4105 8.35289 85.1447 8.25893 86.4195 8.22622C87.192 8.20622 87.9647 8.18622 88.7372 8.16622Z" fill="#151721"/>
<path d="M76.9664 28.0621C78.8032 26.2456 79.9751 25.1208 80.7555 24.3902C81.2285 23.9475 81.7018 23.5048 82.1747 23.0621C80.9235 24.3775 79.7516 25.5025 78.7632 26.4108C78.1643 26.9612 77.5653 27.5116 76.9664 28.0621Z" fill="#181521"/>
<path d="M50.0914 14.7287C49.2928 15.0066 48.4941 15.2841 47.6956 15.5621C47.8974 15.4166 48.4366 15.2291 49.0237 15.0516C49.3795 14.9439 49.7356 14.8364 50.0914 14.7287Z" fill="#022F56"/>
<path d="M37.9038 19.4162C37.702 19.5783 37.1161 19.8596 36.4716 20.1458C36.0809 20.3191 35.6903 20.4929 35.2997 20.6662C36.1678 20.2496 37.0357 19.8329 37.9038 19.4162Z" fill="#022F56"/>
<path d="M69.1539 29.4162C69.4047 29.6435 70.8516 31.6921 71.3674 32.5506C71.4282 32.6516 71.4889 32.7525 71.5497 32.8537C70.7512 31.7079 69.9524 30.5621 69.1539 29.4162Z" fill="#181521"/>
<path d="M47.2789 15.6662C46.6539 15.9091 46.0289 16.1525 45.4039 16.3954C45.6391 16.2298 46.061 16.0658 46.4932 15.9239C46.7551 15.8381 47.017 15.7523 47.2789 15.6662Z" fill="#022F56"/>
<path d="M23.1122 55.5621C22.8599 57.0152 22.7664 57.4371 22.7412 57.4371C22.726 57.4371 22.7108 57.4371 22.6956 57.4371C22.8345 56.8121 22.9733 56.1871 23.1122 55.5621Z" fill="#181521"/>
<path d="M39.1539 18.8954C38.772 19.0691 38.3899 19.2425 38.0081 19.4162C38.1291 19.276 38.3868 19.1587 38.6591 19.0652C38.8241 19.0085 38.9889 18.9521 39.1539 18.8954Z" fill="#022F56"/>
<path d="M82.331 22.9579C82.3597 22.9579 82.383 22.9814 82.383 23.01C82.383 23.0385 82.3597 23.0621 82.331 23.0621C82.3022 23.0621 82.2789 23.0385 82.2789 23.01C82.2789 22.9814 82.3022 22.9579 82.331 22.9579Z" fill="#181521"/>
<path d="M113.112 47.6454C113.344 46.5556 113.487 45.8175 113.579 45.3018C113.672 44.7864 113.785 44.3264 113.832 44.28C113.878 44.2333 115.205 44.1996 116.78 44.2046C118.991 44.2118 119.668 44.1835 119.747 44.0806C119.804 44.0075 119.93 43.4318 120.029 42.8016C120.322 40.9285 120.403 40.4341 120.51 39.8589C120.544 39.6766 120.578 39.4943 120.612 39.3121C120.647 39.1385 120.682 38.9648 120.716 38.7912C120.716 38.7564 120.716 38.7218 120.716 38.6871C120.736 38.6177 120.756 38.5481 120.776 38.4787C120.833 38.2793 120.924 38.2704 122.909 38.2704C123.6 38.2704 124.291 38.2704 124.982 38.2704C124.914 38.826 124.847 39.3814 124.779 39.9371C124.779 39.9718 124.779 40.0064 124.779 40.0412C124.71 40.4579 124.64 40.8746 124.571 41.2912C124.571 41.326 124.571 41.3606 124.571 41.3954C124.536 41.5689 124.501 41.7427 124.466 41.9162C124.466 41.9856 124.466 42.0552 124.466 42.1246C124.432 42.2635 124.397 42.4023 124.362 42.5412C124.362 42.6106 124.362 42.6802 124.362 42.7496C124.327 42.9231 124.293 43.0968 124.258 43.2704C124.258 43.3052 124.258 43.3398 124.258 43.3746C124.223 43.5135 124.189 43.6523 124.154 43.7912C124.154 43.8606 124.154 43.9302 124.154 43.9996C124.145 44.0429 124.137 44.0864 124.128 44.1298C124.108 44.231 124.801 44.266 127.262 44.2877C128.315 44.2968 129.368 44.306 130.421 44.3152C130.381 44.835 130.34 45.3548 130.3 45.8746C130.041 47.8929 130.013 48.0706 129.95 48.1341C129.926 48.1583 128.525 48.1741 126.837 48.1693C124.463 48.1629 123.744 48.191 123.664 48.2937C123.607 48.3668 123.457 49.0596 123.332 49.8329C123.206 50.6062 123.009 51.825 122.893 52.5412C122.777 53.2575 122.648 53.9298 122.607 54.0356C122.537 54.2152 122.394 54.2252 120.372 54.1918C119.652 54.1798 118.932 54.1679 118.212 54.1558C118.246 53.9475 118.279 53.7391 118.313 53.5308C118.368 53.1871 118.556 51.9683 118.729 50.8225C118.903 49.6766 119.065 48.6589 119.089 48.5608C119.18 48.1883 118.936 48.1591 115.988 48.1891C115.03 48.1989 114.071 48.2085 113.112 48.2183C113.112 48.1229 113.112 48.0273 113.112 47.9318C113.112 47.8364 113.112 47.7408 113.112 47.6454Z" fill="#72B119"/>
<path d="M93.2164 47.9579C93.4341 47.0296 93.5539 46.3614 93.6232 45.8746C93.6924 45.3877 93.7741 44.8133 93.8043 44.5985C93.8385 44.3577 93.9162 44.2079 94.0068 44.2079C94.0557 44.2079 94.1047 44.2079 94.1539 44.2079C95.1072 44.2258 96.0605 44.2437 97.0139 44.2616C99.6735 44.3116 99.8807 44.3025 99.9693 44.1314C100.022 44.0304 100.094 43.725 100.196 42.9579C100.196 42.8537 100.196 42.7496 100.196 42.6454C100.196 42.5064 100.196 42.3677 100.196 42.2287C100.23 42.1593 100.265 42.0898 100.3 42.0204C100.334 41.8468 100.369 41.6731 100.404 41.4996C100.404 41.4302 100.404 41.3606 100.404 41.2912C100.439 41.1523 100.473 41.0135 100.508 40.8746C100.508 40.8398 100.508 40.8052 100.508 40.7704C100.508 40.5621 100.508 40.3537 100.508 40.1454C100.543 40.1106 100.577 40.076 100.612 40.0412C100.682 39.6593 100.751 39.2773 100.821 38.8954C100.821 38.8606 100.821 38.826 100.821 38.7912C100.84 38.7043 100.86 38.6177 100.879 38.5308C100.899 38.4439 100.919 38.3573 100.939 38.2704C101.631 38.2704 102.324 38.2704 103.016 38.2704C103.709 38.2704 104.401 38.2704 105.094 38.2704C105.074 38.4006 105.054 38.5308 105.034 38.661C105.001 38.8758 104.794 40.1989 104.572 41.601C104.351 43.0031 104.193 44.1868 104.22 44.2312C104.248 44.2758 105.661 44.3121 107.36 44.3121C108.39 44.3121 109.42 44.3121 110.45 44.3121C110.365 44.8677 110.28 45.4231 110.196 45.9787C110.196 46.0481 110.196 46.1177 110.196 46.1871C110.126 46.5343 110.057 46.8814 109.987 47.2287C109.987 47.3329 109.987 47.4371 109.987 47.5412C109.968 47.626 109.948 47.7104 109.929 47.7952C109.897 47.9348 109.779 48.0756 109.466 48.1662C109.432 48.1662 109.397 48.1662 109.362 48.1662C107.487 48.1662 105.612 48.1662 103.737 48.1662C103.702 48.201 103.668 48.2356 103.633 48.2704C103.599 48.2964 103.565 48.3225 103.531 48.3485C103.475 48.3914 103.405 48.696 103.321 49.6246C103.053 51.7762 102.689 54.0187 102.585 54.1558C102.535 54.221 101.718 54.2487 100.4 54.2298C99.6985 54.2195 98.9966 54.2095 98.2947 54.1993C98.3139 54.0358 98.3328 53.8723 98.3518 53.7089C98.4239 53.0891 99.1101 49.0483 99.211 48.65C99.2632 48.4433 99.242 48.3237 99.1418 48.2591C99.0626 48.2081 97.7095 48.1689 96.1351 48.1725C94.1989 48.1768 93.2635 48.1431 93.2445 48.0683C93.2351 48.0316 93.2257 47.9948 93.2164 47.9579Z" fill="#72B119"/>
<path d="M105.091 38.0621C105.232 38.1835 105.211 38.5416 105.134 38.9475C104.8 40.7248 104.342 43.8996 104.398 44.0466C104.452 44.1871 104.855 44.2079 107.544 44.2079C108.572 44.2079 109.601 44.2079 110.629 44.2079C110.556 44.5031 110.484 44.7981 110.412 45.0933C110.34 45.3885 110.268 45.6835 110.196 45.9787C110.28 45.4231 110.365 44.8677 110.45 44.3121C109.42 44.3121 108.39 44.3121 107.36 44.3121C105.661 44.3121 104.248 44.2758 104.22 44.2312C104.193 44.1868 104.351 43.0031 104.572 41.601C104.794 40.1989 105.001 38.8758 105.034 38.661C105.054 38.5308 105.074 38.4006 105.094 38.2704C104.401 38.2704 103.709 38.2704 103.016 38.2704C102.324 38.2704 101.631 38.2704 100.939 38.2704C100.919 38.3573 100.899 38.4439 100.879 38.5308C100.86 38.6177 100.84 38.7043 100.821 38.7912C100.821 38.5746 100.821 38.3575 100.821 38.1408C101.515 38.1452 102.209 38.1491 102.904 38.1535C103.598 38.1579 104.293 38.1621 104.987 38.1662C105.022 38.1314 105.057 38.0968 105.091 38.0621Z" fill="#194914"/>
<path d="M124.154 43.9996C124.253 44.1696 125.444 44.2079 127.45 44.2079C128.508 44.2079 129.567 44.2079 130.625 44.2079C130.571 44.4856 130.517 44.7635 130.462 45.0412C130.408 45.3189 130.354 45.5968 130.3 45.8746C130.34 45.3548 130.381 44.835 130.421 44.3152C129.368 44.306 128.315 44.2968 127.262 44.2877C124.801 44.266 124.108 44.231 124.128 44.1298C124.137 44.0864 124.145 44.0429 124.154 43.9996Z" fill="#194914"/>
<path d="M94.1539 44.2079C96.0289 44.2079 97.9039 44.2079 99.7789 44.2079C99.8137 44.1731 99.8482 44.1385 99.883 44.1037C99.9872 43.7218 100.091 43.3398 100.196 42.9579C100.094 43.725 100.022 44.0304 99.9693 44.1314C99.8807 44.3025 99.6735 44.3116 97.0139 44.2616C96.0605 44.2437 95.1072 44.2258 94.1539 44.2079Z" fill="#194914"/>
<path d="M103.633 48.2704C103.529 48.7218 103.425 49.1731 103.321 49.6246C103.405 48.696 103.475 48.3914 103.531 48.3485C103.565 48.3225 103.599 48.2964 103.633 48.2704Z" fill="#194914"/>
<path d="M94.728 5.16644C95.1807 3.31144 96.2174 1.89872 97.8518 0.911015C99.0126 0.20914 100.732 -0.133568 102.181 0.0480989C103.958 0.271016 104.882 0.734771 106.266 2.09894C107.496 3.3104 108.001 4.49331 108.085 6.35914C108.151 7.8206 107.947 8.82664 107.35 9.98914C106.418 11.801 104.737 13.0646 102.717 13.4716C101.894 13.6373 100.168 13.6098 99.4824 13.4202C98.8351 13.241 97.4282 12.5946 97.3259 12.4291C97.2905 12.3714 97.0797 12.2098 96.8578 12.0696C96.4237 11.7956 95.7107 10.9035 95.3203 10.1454C94.8282 9.19039 94.5695 8.02727 94.5822 6.82643C94.5885 6.21706 94.6541 5.46998 94.728 5.16644Z" fill="#72B119"/>
</svg>
