<svg xmlns="http://www.w3.org/2000/svg" width="1220" height="614">
<style>
text { font-family: "Segoe UI", Arial, sans-serif; fill: #1f2937; }
.title { font-size: 24px; font-weight: 700; }
.label { font-size: 14px; }
.value { font-size: 13px; fill: #374151; }
.axis { stroke: #94a3b8; stroke-width: 1.2; }
</style>
<text x="220" y="38" class="title">Parallel Mean Overhead</text>
<line x1="220.0" y1="58" x2="220.0" y2="584" class="axis"/>
<text x="208" y="88" text-anchor="end" class="label">ts</text>
<rect x="220.0" y="76" width="102.8" height="14" fill="#f97316" rx="3" ry="3"/>
<text x="330.8" y="88" class="value">5.21%</text>
<text x="208" y="116" text-anchor="end" class="label">2sat</text>
<rect x="220.0" y="104" width="248.5" height="14" fill="#f97316" rx="3" ry="3"/>
<text x="476.5" y="116" class="value">12.59%</text>
<text x="208" y="144" text-anchor="end" class="label">scc_named</text>
<rect x="220.0" y="132" width="253.6" height="14" fill="#f97316" rx="3" ry="3"/>
<text x="481.6" y="144" class="value">12.85%</text>
<text x="208" y="172" text-anchor="end" class="label">cc</text>
<rect x="220.0" y="160" width="341.0" height="14" fill="#f97316" rx="3" ry="3"/>
<text x="569.0" y="172" class="value">17.28%</text>
<text x="208" y="200" text-anchor="end" class="label">dfs</text>
<rect x="220.0" y="188" width="369.1" height="14" fill="#f97316" rx="3" ry="3"/>
<text x="597.1" y="200" class="value">18.70%</text>
<text x="208" y="228" text-anchor="end" class="label">bfs</text>
<rect x="220.0" y="216" width="391.7" height="14" fill="#f97316" rx="3" ry="3"/>
<text x="619.7" y="228" class="value">19.85%</text>
<text x="208" y="256" text-anchor="end" class="label">scc</text>
<rect x="220.0" y="244" width="406.4" height="14" fill="#f97316" rx="3" ry="3"/>
<text x="634.4" y="256" class="value">20.59%</text>
<text x="208" y="284" text-anchor="end" class="label">kruskal</text>
<rect x="220.0" y="272" width="448.8" height="14" fill="#f97316" rx="3" ry="3"/>
<text x="676.8" y="284" class="value">22.74%</text>
<text x="208" y="312" text-anchor="end" class="label">prim</text>
<rect x="220.0" y="300" width="451.9" height="14" fill="#f97316" rx="3" ry="3"/>
<text x="679.9" y="312" class="value">22.90%</text>
<text x="208" y="340" text-anchor="end" class="label">floyd_warshall</text>
<rect x="220.0" y="328" width="504.6" height="14" fill="#f97316" rx="3" ry="3"/>
<text x="732.6" y="340" class="value">25.57%</text>
<text x="208" y="368" text-anchor="end" class="label">dijkstra</text>
<rect x="220.0" y="356" width="506.8" height="14" fill="#f97316" rx="3" ry="3"/>
<text x="734.8" y="368" class="value">25.68%</text>
<text x="208" y="396" text-anchor="end" class="label">bellman_ford</text>
<rect x="220.0" y="384" width="511.5" height="14" fill="#f97316" rx="3" ry="3"/>
<text x="739.5" y="396" class="value">25.92%</text>
<text x="208" y="424" text-anchor="end" class="label">dag_sp</text>
<rect x="220.0" y="412" width="512.5" height="14" fill="#f97316" rx="3" ry="3"/>
<text x="740.5" y="424" class="value">25.97%</text>
<text x="208" y="452" text-anchor="end" class="label">graph_example</text>
<rect x="220.0" y="440" width="561.7" height="14" fill="#f97316" rx="3" ry="3"/>
<text x="789.7" y="452" class="value">28.46%</text>
<text x="208" y="480" text-anchor="end" class="label">graph_weights</text>
<rect x="220.0" y="468" width="609.6" height="14" fill="#f97316" rx="3" ry="3"/>
<text x="837.6" y="480" class="value">30.89%</text>
<text x="208" y="508" text-anchor="end" class="label">mcmf_ssp</text>
<rect x="220.0" y="496" width="752.3" height="14" fill="#f97316" rx="3" ry="3"/>
<text x="980.3" y="508" class="value">38.12%</text>
<text x="208" y="536" text-anchor="end" class="label">mcmf_cc</text>
<rect x="220.0" y="524" width="871.5" height="14" fill="#f97316" rx="3" ry="3"/>
<text x="1099.5" y="536" class="value">44.16%</text>
<text x="208" y="564" text-anchor="end" class="label">flow</text>
<rect x="220.0" y="552" width="910.0" height="14" fill="#f97316" rx="3" ry="3"/>
<text x="1138.0" y="564" class="value">46.11%</text>
</svg>