<svg xmlns="http://www.w3.org/2000/svg" width="1220" height="614">
<style>
text { font-family: "Segoe UI", Arial, sans-serif; fill: #1f2937; }
.title { font-size: 24px; font-weight: 700; }
.label { font-size: 14px; }
.value { font-size: 13px; fill: #374151; }
</style>
<text x="220" y="38" class="title">Parallel nxpp/Baseline Compile-Time Ratio</text>
<text x="208" y="88" text-anchor="end" class="label">flow</text>
<rect x="220" y="76" width="910.0" height="14" fill="#8b5cf6" rx="3" ry="3"/>
<text x="1138.0" y="88" class="value">1.46x</text>
<text x="208" y="116" text-anchor="end" class="label">mcmf_cc</text>
<rect x="220" y="104" width="897.9" height="14" fill="#8b5cf6" rx="3" ry="3"/>
<text x="1125.9" y="116" class="value">1.44x</text>
<text x="208" y="144" text-anchor="end" class="label">mcmf_ssp</text>
<rect x="220" y="132" width="860.2" height="14" fill="#8b5cf6" rx="3" ry="3"/>
<text x="1088.2" y="144" class="value">1.38x</text>
<text x="208" y="172" text-anchor="end" class="label">graph_weights</text>
<rect x="220" y="160" width="815.2" height="14" fill="#8b5cf6" rx="3" ry="3"/>
<text x="1043.2" y="172" class="value">1.31x</text>
<text x="208" y="200" text-anchor="end" class="label">graph_example</text>
<rect x="220" y="188" width="800.1" height="14" fill="#8b5cf6" rx="3" ry="3"/>
<text x="1028.1" y="200" class="value">1.28x</text>
<text x="208" y="228" text-anchor="end" class="label">dag_sp</text>
<rect x="220" y="216" width="784.6" height="14" fill="#8b5cf6" rx="3" ry="3"/>
<text x="1012.6" y="228" class="value">1.26x</text>
<text x="208" y="256" text-anchor="end" class="label">bellman_ford</text>
<rect x="220" y="244" width="784.3" height="14" fill="#8b5cf6" rx="3" ry="3"/>
<text x="1012.3" y="256" class="value">1.26x</text>
<text x="208" y="284" text-anchor="end" class="label">dijkstra</text>
<rect x="220" y="272" width="782.8" height="14" fill="#8b5cf6" rx="3" ry="3"/>
<text x="1010.8" y="284" class="value">1.26x</text>
<text x="208" y="312" text-anchor="end" class="label">floyd_warshall</text>
<rect x="220" y="300" width="782.1" height="14" fill="#8b5cf6" rx="3" ry="3"/>
<text x="1010.1" y="312" class="value">1.26x</text>
<text x="208" y="340" text-anchor="end" class="label">prim</text>
<rect x="220" y="328" width="765.5" height="14" fill="#8b5cf6" rx="3" ry="3"/>
<text x="993.5" y="340" class="value">1.23x</text>
<text x="208" y="368" text-anchor="end" class="label">kruskal</text>
<rect x="220" y="356" width="764.5" height="14" fill="#8b5cf6" rx="3" ry="3"/>
<text x="992.5" y="368" class="value">1.23x</text>
<text x="208" y="396" text-anchor="end" class="label">scc</text>
<rect x="220" y="384" width="751.1" height="14" fill="#8b5cf6" rx="3" ry="3"/>
<text x="979.1" y="396" class="value">1.21x</text>
<text x="208" y="424" text-anchor="end" class="label">bfs</text>
<rect x="220" y="412" width="746.5" height="14" fill="#8b5cf6" rx="3" ry="3"/>
<text x="974.5" y="424" class="value">1.20x</text>
<text x="208" y="452" text-anchor="end" class="label">dfs</text>
<rect x="220" y="440" width="739.3" height="14" fill="#8b5cf6" rx="3" ry="3"/>
<text x="967.3" y="452" class="value">1.19x</text>
<text x="208" y="480" text-anchor="end" class="label">cc</text>
<rect x="220" y="468" width="730.5" height="14" fill="#8b5cf6" rx="3" ry="3"/>
<text x="958.5" y="480" class="value">1.17x</text>
<text x="208" y="508" text-anchor="end" class="label">scc_named</text>
<rect x="220" y="496" width="702.9" height="14" fill="#8b5cf6" rx="3" ry="3"/>
<text x="930.9" y="508" class="value">1.13x</text>
<text x="208" y="536" text-anchor="end" class="label">2sat</text>
<rect x="220" y="524" width="701.2" height="14" fill="#8b5cf6" rx="3" ry="3"/>
<text x="929.2" y="536" class="value">1.13x</text>
<text x="208" y="564" text-anchor="end" class="label">ts</text>
<rect x="220" y="552" width="655.3" height="14" fill="#8b5cf6" rx="3" ry="3"/>
<text x="883.3" y="564" class="value">1.05x</text>
</svg>