<svg xmlns="http://www.w3.org/2000/svg" width="1220" height="614">
<style>
text { font-family: "Segoe UI", Arial, sans-serif; fill: #1f2937; }
.title { font-size: 24px; font-weight: 700; }
.label { font-size: 14px; }
.value { font-size: 13px; fill: #374151; }
.axis { stroke: #94a3b8; stroke-width: 1.2; }
</style>
<text x="220" y="38" class="title">Parallel Mean-vs-Median Overhead Gap</text>
<line x1="220.0" y1="58" x2="220.0" y2="584" class="axis"/>
<text x="208" y="88" text-anchor="end" class="label">floyd_warshall</text>
<rect x="220.0" y="76" width="2.1" height="14" fill="#b45309" rx="3" ry="3"/>
<text x="230.1" y="88" class="value">0.02 pts</text>
<text x="208" y="116" text-anchor="end" class="label">graph_example</text>
<rect x="220.0" y="104" width="12.6" height="14" fill="#b45309" rx="3" ry="3"/>
<text x="240.6" y="116" class="value">0.12 pts</text>
<text x="208" y="144" text-anchor="end" class="label">dfs</text>
<rect x="220.0" y="132" width="13.6" height="14" fill="#b45309" rx="3" ry="3"/>
<text x="241.6" y="144" class="value">0.13 pts</text>
<text x="208" y="172" text-anchor="end" class="label">prim</text>
<rect x="220.0" y="160" width="14.7" height="14" fill="#b45309" rx="3" ry="3"/>
<text x="242.7" y="172" class="value">0.14 pts</text>
<text x="208" y="200" text-anchor="end" class="label">cc</text>
<rect x="220.0" y="188" width="18.9" height="14" fill="#b45309" rx="3" ry="3"/>
<text x="246.9" y="200" class="value">0.18 pts</text>
<text x="208" y="228" text-anchor="end" class="label">bfs</text>
<rect x="220.0" y="216" width="31.5" height="14" fill="#b45309" rx="3" ry="3"/>
<text x="259.5" y="228" class="value">0.30 pts</text>
<text x="208" y="256" text-anchor="end" class="label">flow</text>
<rect x="220.0" y="244" width="44.0" height="14" fill="#b45309" rx="3" ry="3"/>
<text x="272.0" y="256" class="value">0.42 pts</text>
<text x="208" y="284" text-anchor="end" class="label">dijkstra</text>
<rect x="220.0" y="272" width="59.8" height="14" fill="#b45309" rx="3" ry="3"/>
<text x="287.8" y="284" class="value">0.57 pts</text>
<text x="208" y="312" text-anchor="end" class="label">mcmf_cc</text>
<rect x="220.0" y="300" width="73.4" height="14" fill="#b45309" rx="3" ry="3"/>
<text x="301.4" y="312" class="value">0.70 pts</text>
<text x="208" y="340" text-anchor="end" class="label">kruskal</text>
<rect x="220.0" y="328" width="104.8" height="14" fill="#b45309" rx="3" ry="3"/>
<text x="332.8" y="340" class="value">1.00 pts</text>
<text x="208" y="368" text-anchor="end" class="label">dag_sp</text>
<rect x="220.0" y="356" width="121.6" height="14" fill="#b45309" rx="3" ry="3"/>
<text x="349.6" y="368" class="value">1.16 pts</text>
<text x="208" y="396" text-anchor="end" class="label">scc</text>
<rect x="220.0" y="384" width="162.5" height="14" fill="#b45309" rx="3" ry="3"/>
<text x="390.5" y="396" class="value">1.55 pts</text>
<text x="208" y="424" text-anchor="end" class="label">2sat</text>
<rect x="220.0" y="412" width="239.0" height="14" fill="#b45309" rx="3" ry="3"/>
<text x="467.0" y="424" class="value">2.28 pts</text>
<text x="208" y="452" text-anchor="end" class="label">mcmf_ssp</text>
<rect x="220.0" y="440" width="243.2" height="14" fill="#b45309" rx="3" ry="3"/>
<text x="471.2" y="452" class="value">2.32 pts</text>
<text x="208" y="480" text-anchor="end" class="label">bellman_ford</text>
<rect x="220.0" y="468" width="393.1" height="14" fill="#b45309" rx="3" ry="3"/>
<text x="621.1" y="480" class="value">3.75 pts</text>
<text x="208" y="508" text-anchor="end" class="label">graph_weights</text>
<rect x="220.0" y="496" width="501.1" height="14" fill="#b45309" rx="3" ry="3"/>
<text x="729.1" y="508" class="value">4.78 pts</text>
<text x="208" y="536" text-anchor="end" class="label">ts</text>
<rect x="220.0" y="524" width="749.6" height="14" fill="#b45309" rx="3" ry="3"/>
<text x="977.6" y="536" class="value">7.15 pts</text>
<text x="208" y="564" text-anchor="end" class="label">scc_named</text>
<rect x="220.0" y="552" width="910.0" height="14" fill="#b45309" rx="3" ry="3"/>
<text x="1138.0" y="564" class="value">8.68 pts</text>
</svg>