<svg xmlns="http://www.w3.org/2000/svg" width="1220" height="614">
<style>
text { font-family: "Segoe UI", Arial, sans-serif; fill: #1f2937; }
.title { font-size: 24px; font-weight: 700; }
.label { font-size: 14px; }
.value { font-size: 13px; fill: #374151; }
</style>
<text x="220" y="38" class="title">Serial nxpp/Baseline Compile-Time Ratio</text>
<text x="208" y="88" text-anchor="end" class="label">flow</text>
<rect x="220" y="76" width="910.0" height="14" fill="#8b5cf6" rx="3" ry="3"/>
<text x="1138.0" y="88" class="value">1.50x</text>
<text x="208" y="116" text-anchor="end" class="label">mcmf_ssp</text>
<rect x="220" y="104" width="875.4" height="14" fill="#8b5cf6" rx="3" ry="3"/>
<text x="1103.4" y="116" class="value">1.44x</text>
<text x="208" y="144" text-anchor="end" class="label">mcmf_cc</text>
<rect x="220" y="132" width="867.4" height="14" fill="#8b5cf6" rx="3" ry="3"/>
<text x="1095.4" y="144" class="value">1.43x</text>
<text x="208" y="172" text-anchor="end" class="label">graph_weights</text>
<rect x="220" y="160" width="787.1" height="14" fill="#8b5cf6" rx="3" ry="3"/>
<text x="1015.1" y="172" class="value">1.30x</text>
<text x="208" y="200" text-anchor="end" class="label">graph_example</text>
<rect x="220" y="188" width="784.4" height="14" fill="#8b5cf6" rx="3" ry="3"/>
<text x="1012.4" y="200" class="value">1.29x</text>
<text x="208" y="228" text-anchor="end" class="label">dijkstra</text>
<rect x="220" y="216" width="779.6" height="14" fill="#8b5cf6" rx="3" ry="3"/>
<text x="1007.6" y="228" class="value">1.28x</text>
<text x="208" y="256" text-anchor="end" class="label">bellman_ford</text>
<rect x="220" y="244" width="765.8" height="14" fill="#8b5cf6" rx="3" ry="3"/>
<text x="993.8" y="256" class="value">1.26x</text>
<text x="208" y="284" text-anchor="end" class="label">floyd_warshall</text>
<rect x="220" y="272" width="756.8" height="14" fill="#8b5cf6" rx="3" ry="3"/>
<text x="984.8" y="284" class="value">1.25x</text>
<text x="208" y="312" text-anchor="end" class="label">dag_sp</text>
<rect x="220" y="300" width="740.4" height="14" fill="#8b5cf6" rx="3" ry="3"/>
<text x="968.4" y="312" class="value">1.22x</text>
<text x="208" y="340" text-anchor="end" class="label">kruskal</text>
<rect x="220" y="328" width="730.0" height="14" fill="#8b5cf6" rx="3" ry="3"/>
<text x="958.0" y="340" class="value">1.20x</text>
<text x="208" y="368" text-anchor="end" class="label">bfs</text>
<rect x="220" y="356" width="726.7" height="14" fill="#8b5cf6" rx="3" ry="3"/>
<text x="954.7" y="368" class="value">1.20x</text>
<text x="208" y="396" text-anchor="end" class="label">prim</text>
<rect x="220" y="384" width="720.1" height="14" fill="#8b5cf6" rx="3" ry="3"/>
<text x="948.1" y="396" class="value">1.19x</text>
<text x="208" y="424" text-anchor="end" class="label">scc</text>
<rect x="220" y="412" width="707.8" height="14" fill="#8b5cf6" rx="3" ry="3"/>
<text x="935.8" y="424" class="value">1.17x</text>
<text x="208" y="452" text-anchor="end" class="label">cc</text>
<rect x="220" y="440" width="706.6" height="14" fill="#8b5cf6" rx="3" ry="3"/>
<text x="934.6" y="452" class="value">1.16x</text>
<text x="208" y="480" text-anchor="end" class="label">scc_named</text>
<rect x="220" y="468" width="701.4" height="14" fill="#8b5cf6" rx="3" ry="3"/>
<text x="929.4" y="480" class="value">1.16x</text>
<text x="208" y="508" text-anchor="end" class="label">dfs</text>
<rect x="220" y="496" width="698.5" height="14" fill="#8b5cf6" rx="3" ry="3"/>
<text x="926.5" y="508" class="value">1.15x</text>
<text x="208" y="536" text-anchor="end" class="label">ts</text>
<rect x="220" y="524" width="697.0" height="14" fill="#8b5cf6" rx="3" ry="3"/>
<text x="925.0" y="536" class="value">1.15x</text>
<text x="208" y="564" text-anchor="end" class="label">2sat</text>
<rect x="220" y="552" width="646.1" height="14" fill="#8b5cf6" rx="3" ry="3"/>
<text x="874.1" y="564" class="value">1.06x</text>
</svg>